{
  "accessors": [
    {
      "bufferView": 2,
      "componentType": 5126,
      "count": 3888,
      "max": [
        103.83804321289063,
        238.48326110839844,
        143.3474884033203
      ],
      "min": [
        -103.83804321289063,
        -238.48326110839844,
        -143.3474884033203
      ],
      "type": "VEC3"
    },
    {
      "bufferView": 2,
      "byteOffset": 46656,
      "componentType": 5126,
      "count": 3888,
      "max": [
        1.0,
        1.0,
        1.0
      ],
      "min": [
        -1.0,
        -1.0,
        -1.0
      ],
      "type": "VEC3"
    },
    {
      "bufferView": 3,
      "componentType": 5126,
      "count": 3888,
      "max": [
        1.0,
        0.9999781847000122,
        1.0,
        1.0
      ],
      "min": [
        -1.0,
        -0.9999744296073914,
        -1.0,
        -1.0
      ],
      "type": "VEC4"
    },
    {
      "bufferView": 1,
      "componentType": 5126,
      "count": 3888,
      "max": [
        0.9548487067222595,
        0.9994557499885559
      ],
      "min": [
        0.0005442445399239659,
        0.0005443096160888672
      ],
      "type": "VEC2"
    },
    {
      "bufferView": 0,
      "componentType": 5125,
      "count": 16860,
      "type": "SCALAR"
    },
    {
      "bufferView": 2,
      "byteOffset": 93312,
      "componentType": 5126,
      "count": 3888,
      "max": [
        103.83804321289063,
        238.48326110839844,
        143.3474884033203
      ],
      "min": [
        -103.83804321289063,
        -238.48326110839844,
        -143.3474884033203
      ],
      "type": "VEC3"
    },
    {
      "bufferView": 2,
      "byteOffset": 139968,
      "componentType": 5126,
      "count": 3888,
      "max": [
        1.0,
        1.0,
        1.0
      ],
      "min": [
        -1.0,
        -1.0,
        -1.0
      ],
      "type": "VEC3"
    },
    {
      "bufferView": 3,
      "byteOffset": 62208,
      "componentType": 5126,
      "count": 3888,
      "max": [
        1.0,
        0.9999781847000122,
        1.0,
        1.0
      ],
      "min": [
        -1.0,
        -0.9999744296073914,
        -1.0,
        -1.0
      ],
      "type": "VEC4"
    },
    {
      "bufferView": 1,
      "byteOffset": 31104,
      "componentType": 5126,
      "count": 3888,
      "max": [
        0.9548487067222595,
        0.9994557499885559
      ],
      "min": [
        0.0005442445399239659,
        0.0005443096160888672
      ],
      "type": "VEC2"
    },
    {
      "bufferView": 0,
      "byteOffset": 67440,
      "componentType": 5125,
      "count": 16860,
      "type": "SCALAR"
    },
    {
      "bufferView": 2,
      "byteOffset": 186624,
      "componentType": 5126,
      "count": 3888,
      "max": [
        103.83804321289063,
        238.48326110839844,
        143.3474884033203
      ],
      "min": [
        -103.83804321289063,
        -238.48326110839844,
        -143.3474884033203
      ],
      "type": "VEC3"
    },
    {
      "bufferView": 2,
      "byteOffset": 233280,
      "componentType": 5126,
      "count": 3888,
      "max": [
        1.0,
        1.0,
        1.0
      ],
      "min": [
        -1.0,
        -1.0,
        -1.0
      ],
      "type": "VEC3"
    },
    {
      "bufferView": 3,
      "byteOffset": 124416,
      "componentType": 5126,
      "count": 3888,
      "max": [
        1.0,
        0.9999781847000122,
        1.0,
        1.0
      ],
      "min": [
        -1.0,
        -0.9999744296073914,
        -1.0,
        -1.0
      ],
      "type": "VEC4"
    },
    {
      "bufferView": 1,
      "byteOffset": 62208,
      "componentType": 5126,
      "count": 3888,
      "max": [
        0.9548487067222595,
        0.9994557499885559
      ],
      "min": [
        0.0005442445399239659,
        0.0005443096160888672
      ],
      "type": "VEC2"
    },
    {
      "bufferView": 0,
      "byteOffset": 134880,
      "componentType": 5125,
      "count": 16860,
      "type": "SCALAR"
    }
  ],
  "asset": {
    "extras": {
      "author": "adventurer (https://sketchfab.com/ahmagh2e)",
      "license": "CC-BY-4.0 (http://creativecommons.org/licenses/by/4.0/)",
      "source": "https://sketchfab.com/3d-models/chair-e4424b05beaf4d49bf3b2d0958188641",
      "title": "chair"
    },
    "generator": "Sketchfab-16.2.0",
    "version": "2.0"
  },
  "bufferViews": [
    {
      "buffer": 0,
      "byteLength": 202320,
      "name": "floatBufferViews",
      "target": 34963
    },
    {
      "buffer": 0,
      "byteLength": 93312,
      "byteOffset": 202320,
      "byteStride": 8,
      "name": "floatBufferViews",
      "target": 34962
    },
    {
      "buffer": 0,
      "byteLength": 279936,
      "byteOffset": 295632,
      "byteStride": 12,
      "name": "floatBufferViews",
      "target": 34962
    },
    {
      "buffer": 0,
      "byteLength": 186624,
      "byteOffset": 575568,
      "byteStride": 16,
      "name": "floatBufferViews",
      "target": 34962
    }
  ],
  "buffers": [
    {
      "byteLength": 762192,
      "uri": "scene.bin"
    }
  ],
  "extensionsUsed": [
    "KHR_materials_specular"
  ],
  "images": [
    {
      "uri": "textures/Scene_-_Root_baseColor.png"
    },
    {
      "uri": "textures/Scene_-_Root_metallicRoughness.png"
    },
    {
      "uri": "textures/Scene_-_Root_normal.png"
    }
  ],
  "materials": [
    {
      "doubleSided": true,
      "extensions": {
        "KHR_materials_specular": {
          "specularColorFactor": [
            1.0,
            1.0,
            1.0
          ],
          "specularFactor": 0.27276273603881457
        }
      },
      "name": "Scene_-_Root",
      "normalTexture": {
        "index": 2
      },
      "pbrMetallicRoughness": {
        "baseColorTexture": {
          "index": 0
        },
        "metallicRoughnessTexture": {
          "index": 1
        },
        "roughnessFactor": 0.8030500664382977
      }
    }
  ],
  "meshes": [
    {
      "name": "Cube_1__0",
      "primitives": [
        {
          "attributes": {
            "NORMAL": 1,
            "POSITION": 0,
            "TANGENT": 2,
            "TEXCOORD_0": 3
          },
          "indices": 4,
          "material": 0,
          "mode": 4
        }
      ]
    },
    {
      "name": "Cube__0",
      "primitives": [
        {
          "attributes": {
            "NORMAL": 6,
            "POSITION": 5,
            "TANGENT": 7,
            "TEXCOORD_0": 8
          },
          "indices": 9,
          "material": 0,
          "mode": 4
        }
      ]
    },
    {
      "name": "Cube_2__0",
      "primitives": [
        {
          "attributes": {
            "NORMAL": 11,
            "POSITION": 10,
            "TANGENT": 12,
            "TEXCOORD_0": 13
          },
          "indices": 14,
          "material": 0,
          "mode": 4
        }
      ]
    }
  ],
  "nodes": [
    {
      "children": [
        1
      ],
      "matrix": [
        1.0,
        0.0,
        0.0,
        0.0,
        0.0,
        2.220446049250313e-16,
        -1.0,
        0.0,
        0.0,
        1.0,
        2.220446049250313e-16,
        0.0,
        0.0,
        0.0,
        0.0,
        1.0
      ],
      "name": "Sketchfab_model"
    },
    {
      "children": [
        2
      ],
      "matrix": [
        0.009999999776482582,
        0.0,
        0.0,
        0.0,
        0.0,
        0.0,
        0.009999999776482582,
        0.0,
        0.0,
        -0.009999999776482582,
        0.0,
        0.0,
        0.0,
        0.0,
        0.0,
        1.0
      ],
      "name": "0e54b717aca049549ebe147f25b2049d.fbx"
    },
    {
      "children": [
        3,
        5,
        7
      ],
      "name": "RootNode"
    },
    {
      "children": [
        4
      ],
      "matrix": [
        0.30876442511824853,
        0.0,
        0.9511385439468835,
        0.0,
        0.0,
        1.0,
        0.0,
        0.0,
        -0.9511385439468835,
        0.0,
        0.30876442511824853,
        0.0,
        690.4244995117188,
        238.48326110839844,
        0.0,
        1.0
      ],
      "name": "Cube_1"
    },
    {
      "mesh": 0,
      "name": "Cube_1__0"
    },
    {
      "children": [
        6
      ],
      "matrix": [
        0.7098488313692379,
        0.0,
        -0.704354056284002,
        0.0,
        0.0,
        1.0,
        0.0,
        0.0,
        0.704354056284002,
        0.0,
        0.7098488313692379,
        0.0,
        317.2399597167969,
        238.48326110839844,
        0.0,
        1.0
      ],
      "name": "Cube"
    },
    {
      "mesh": 1,
      "name": "Cube__0"
    },
    {
      "children": [
        8
      ],
      "matrix": [
        1.0,
        0.0,
        0.0,
        0.0,
        0.0,
        1.0,
        0.0,
        0.0,
        0.0,
        0.0,
        1.0,
        0.0,
        0.0,
        238.48326110839844,
        0.0,
        1.0
      ],
      "name": "Cube_2"
    },
    {
      "mesh": 2,
      "name": "Cube_2__0"
    }
  ],
  "samplers": [
    {
      "magFilter": 9729,
      "minFilter": 9987,
      "wrapS": 10497,
      "wrapT": 10497
    }
  ],
  "scene": 0,
  "scenes": [
    {
      "name": "Sketchfab_Scene",
      "nodes": [
        0
      ]
    }
  ],
  "textures": [
    {
      "sampler": 0,
      "source": 0
    },
    {
      "sampler": 0,
      "source": 1
    },
    {
      "sampler": 0,
      "source": 2
    }
  ]
}
