{
  "accessors": [
    {
      "bufferView": 2,
      "componentType": 5126,
      "count": 9984,
      "max": [
        6.007999897003174,
        8.637999534606934,
        16.506799697875977
      ],
      "min": [
        -8.997699737548828,
        -7.9430999755859375,
        7.9791998863220215
      ],
      "type": "VEC3"
    },
    {
      "bufferView": 2,
      "byteOffset": 119808,
      "componentType": 5126,
      "count": 9984,
      "max": [
        0.993139386177063,
        0.9998912811279297,
        0.9984971284866333
      ],
      "min": [
        -0.9973238110542297,
        -0.9979015588760376,
        -0.9952262043952942
      ],
      "type": "VEC3"
    },
    {
      "bufferView": 1,
      "componentType": 5126,
      "count": 9984,
      "max": [
        0.698199987411499,
        0.6887999773025513
      ],
      "min": [
        0.004999999888241291,
        0.004999999888241291
      ],
      "type": "VEC2"
    },
    {
      "bufferView": 0,
      "componentType": 5125,
      "count": 10098,
      "type": "SCALAR"
    },
    {
      "bufferView": 2,
      "byteOffset": 239616,
      "componentType": 5126,
      "count": 9988,
      "max": [
        4.972499847412109,
        8.637999534606934,
        19.02630043029785
      ],
      "min": [
        -5.249899864196777,
        7.289299964904785,
        9.208499908447266
      ],
      "type": "VEC3"
    },
    {
      "bufferView": 2,
      "byteOffset": 359472,
      "componentType": 5126,
      "count": 9988,
      "max": [
        0.9979752898216248,
        0.999891996383667,
        0.9872700572013855
      ],
      "min": [
        -0.9867085814476013,
        -0.9978995323181152,
        -0.8378584384918213
      ],
      "type": "VEC3"
    },
    {
      "bufferView": 1,
      "byteOffset": 79872,
      "componentType": 5126,
      "count": 9988,
      "max": [
        0.6291000247001648,
        0.6845999956130981
      ],
      "min": [
        0.004999999888241291,
        0.004999999888241291
      ],
      "type": "VEC2"
    },
    {
      "bufferView": 0,
      "byteOffset": 40392,
      "componentType": 5125,
      "count": 10092,
      "type": "SCALAR"
    },
    {
      "bufferView": 2,
      "byteOffset": 479328,
      "componentType": 5126,
      "count": 9987,
      "max": [
        13.325200080871582,
        7.9430999755859375,
        16.63129997253418
      ],
      "min": [
        -8.997699737548828,
        -8.637999534606934,
        7.9791998863220215
      ],
      "type": "VEC3"
    },
    {
      "bufferView": 2,
      "byteOffset": 599172,
      "componentType": 5126,
      "count": 9987,
      "max": [
        0.993139386177063,
        0.9979015588760376,
        0.9984971284866333
      ],
      "min": [
        -0.9973238110542297,
        -0.9998912811279297,
        -0.9952262043952942
      ],
      "type": "VEC3"
    },
    {
      "bufferView": 1,
      "byteOffset": 159776,
      "componentType": 5126,
      "count": 9987,
      "max": [
        0.9187999963760376,
        0.680899977684021
      ],
      "min": [
        0.004999999888241291,
        0.004999999888241291
      ],
      "type": "VEC2"
    },
    {
      "bufferView": 0,
      "byteOffset": 80760,
      "componentType": 5125,
      "count": 10083,
      "type": "SCALAR"
    },
    {
      "bufferView": 2,
      "byteOffset": 719016,
      "componentType": 5126,
      "count": 9990,
      "max": [
        5.704400062561035,
        7.909800052642822,
        19.02630043029785
      ],
      "min": [
        -8.67140007019043,
        -8.637999534606934,
        7.9791998863220215
      ],
      "type": "VEC3"
    },
    {
      "bufferView": 2,
      "byteOffset": 838896,
      "componentType": 5126,
      "count": 9990,
      "max": [
        0.9979752898216248,
        0.9978995323181152,
        0.9872700572013855
      ],
      "min": [
        -0.9867085814476013,
        -0.999891996383667,
        -0.8984932899475098
      ],
      "type": "VEC3"
    },
    {
      "bufferView": 1,
      "byteOffset": 239672,
      "componentType": 5126,
      "count": 9990,
      "max": [
        0.6621000170707703,
        0.6779999732971191
      ],
      "min": [
        0.004999999888241291,
        0.004999999888241291
      ],
      "type": "VEC2"
    },
    {
      "bufferView": 0,
      "byteOffset": 121092,
      "componentType": 5125,
      "count": 10098,
      "type": "SCALAR"
    },
    {
      "bufferView": 2,
      "byteOffset": 958776,
      "componentType": 5126,
      "count": 56714,
      "max": [
        22.965200424194336,
        8.930899620056152,
        28.884899139404297
      ],
      "min": [
        -7.559599876403809,
        -8.930899620056152,
        1.4283000230789185
      ],
      "type": "VEC3"
    },
    {
      "bufferView": 2,
      "byteOffset": 1639344,
      "componentType": 5126,
      "count": 56714,
      "max": [
        1.0,
        1.0,
        1.0
      ],
      "min": [
        -1.0,
        -1.0,
        -1.0
      ],
      "type": "VEC3"
    },
    {
      "bufferView": 1,
      "byteOffset": 319592,
      "componentType": 5126,
      "count": 56714,
      "max": [
        0.9904000163078308,
        0.7811999917030334
      ],
      "min": [
        0.004999999888241291,
        0.004999999888241291
      ],
      "type": "VEC2"
    },
    {
      "bufferView": 0,
      "byteOffset": 161484,
      "componentType": 5125,
      "count": 265821,
      "type": "SCALAR"
    },
    {
      "bufferView": 2,
      "byteOffset": 2319912,
      "componentType": 5126,
      "count": 7971,
      "max": [
        14.047300338745117,
        8.637999534606934,
        20.349000930786133
      ],
      "min": [
        -10.286999702453613,
        -8.564000129699707,
        -0.011699999682605267
      ],
      "type": "VEC3"
    },
    {
      "bufferView": 2,
      "byteOffset": 2415564,
      "componentType": 5126,
      "count": 7971,
      "max": [
        0.9999350309371948,
        0.9999998807907104,
        1.0
      ],
      "min": [
        -0.9999946355819702,
        -0.9999998807907104,
        -0.9999830722808838
      ],
      "type": "VEC3"
    },
    {
      "bufferView": 1,
      "byteOffset": 773304,
      "componentType": 5126,
      "count": 7971,
      "max": [
        0.9984999895095825,
        0.9983000159263611
      ],
      "min": [
        0.0024999999441206455,
        0.020099999383091927
      ],
      "type": "VEC2"
    },
    {
      "bufferView": 0,
      "byteOffset": 1224768,
      "componentType": 5125,
      "count": 31233,
      "type": "SCALAR"
    },
    {
      "bufferView": 2,
      "byteOffset": 2511216,
      "componentType": 5126,
      "count": 9926,
      "max": [
        13.961199760437012,
        8.93850040435791,
        19.292699813842773
      ],
      "min": [
        -9.347700119018555,
        -8.93850040435791,
        1.0428999662399292
      ],
      "type": "VEC3"
    },
    {
      "bufferView": 2,
      "byteOffset": 2630328,
      "componentType": 5126,
      "count": 9926,
      "max": [
        0.9999984502792358,
        0.9999678134918213,
        1.0
      ],
      "min": [
        -0.9999265670776367,
        -0.999441385269165,
        -0.9999933242797852
      ],
      "type": "VEC3"
    },
    {
      "bufferView": 1,
      "byteOffset": 837072,
      "componentType": 5126,
      "count": 9926,
      "max": [
        0.9980000257492065,
        0.864799976348877
      ],
      "min": [
        0.0027000000700354576,
        0.009800000116229057
      ],
      "type": "VEC2"
    },
    {
      "bufferView": 0,
      "byteOffset": 1349700,
      "componentType": 5125,
      "count": 31479,
      "type": "SCALAR"
    },
    {
      "bufferView": 2,
      "byteOffset": 2749440,
      "componentType": 5126,
      "count": 6889,
      "max": [
        23.0310001373291,
        8.372400283813477,
        19.47879981994629
      ],
      "min": [
        -9.531399726867676,
        -8.372400283813477,
        -0.13459999859333038
      ],
      "type": "VEC3"
    },
    {
      "bufferView": 2,
      "byteOffset": 2832108,
      "componentType": 5126,
      "count": 6889,
      "max": [
        0.9999958276748657,
        1.0,
        0.9999985694885254
      ],
      "min": [
        -0.9999890327453613,
        -1.0,
        -0.9999920129776001
      ],
      "type": "VEC3"
    },
    {
      "bufferView": 1,
      "byteOffset": 916480,
      "componentType": 5126,
      "count": 6889,
      "max": [
        0.9983000159263611,
        0.867900013923645
      ],
      "min": [
        0.002199999988079071,
        0.012900000438094139
      ],
      "type": "VEC2"
    },
    {
      "bufferView": 0,
      "byteOffset": 1475616,
      "componentType": 5125,
      "count": 28410,
      "type": "SCALAR"
    },
    {
      "bufferView": 2,
      "byteOffset": 2914776,
      "componentType": 5126,
      "count": 10094,
      "max": [
        14.006999969482422,
        6.398799896240234,
        3.30430006980896
      ],
      "min": [
        10.888400077819824,
        -8.177599906921387,
        0.3537999987602234
      ],
      "type": "VEC3"
    },
    {
      "bufferView": 2,
      "byteOffset": 3035904,
      "componentType": 5126,
      "count": 10094,
      "max": [
        0.9999814033508301,
        1.0,
        0.9999874830245972
      ],
      "min": [
        -0.9962109327316284,
        -0.9999998807907104,
        -0.9999911785125732
      ],
      "type": "VEC3"
    },
    {
      "bufferView": 1,
      "byteOffset": 971592,
      "componentType": 5126,
      "count": 10094,
      "max": [
        0.7857000231742859,
        0.7800999879837036
      ],
      "min": [
        0.08609999716281891,
        0.013700000010430813
      ],
      "type": "VEC2"
    },
    {
      "bufferView": 0,
      "byteOffset": 1589256,
      "componentType": 5125,
      "count": 48000,
      "type": "SCALAR"
    },
    {
      "bufferView": 2,
      "byteOffset": 3157032,
      "componentType": 5126,
      "count": 9835,
      "max": [
        22.652599334716797,
        9.089200019836426,
        21.13909912109375
      ],
      "min": [
        -8.997699737548828,
        -8.637999534606934,
        0.29030001163482666
      ],
      "type": "VEC3"
    },
    {
      "bufferView": 2,
      "byteOffset": 3275052,
      "componentType": 5126,
      "count": 9835,
      "max": [
        0.9999964237213135,
        0.9999938011169434,
        0.9998571872711182
      ],
      "min": [
        -0.9999988079071045,
        -0.9999970197677612,
        -0.9998212456703186
      ],
      "type": "VEC3"
    },
    {
      "bufferView": 1,
      "byteOffset": 1052344,
      "componentType": 5126,
      "count": 9835,
      "max": [
        0.7868000268936157,
        0.7901999950408936
      ],
      "min": [
        0.004999999888241291,
        0.004999999888241291
      ],
      "type": "VEC2"
    },
    {
      "bufferView": 0,
      "byteOffset": 1781256,
      "componentType": 5125,
      "count": 37422,
      "type": "SCALAR"
    },
    {
      "bufferView": 2,
      "byteOffset": 3393072,
      "componentType": 5126,
      "count": 9683,
      "max": [
        12.391500473022461,
        8.57979965209961,
        19.27910041809082
      ],
      "min": [
        -9.009400367736816,
        -8.832300186157227,
        1.9996000528335571
      ],
      "type": "VEC3"
    },
    {
      "bufferView": 2,
      "byteOffset": 3509268,
      "componentType": 5126,
      "count": 9683,
      "max": [
        0.9999964237213135,
        0.9998512268066406,
        0.9997710585594177
      ],
      "min": [
        -0.9999988079071045,
        -0.9998505115509033,
        -0.999742329120636
      ],
      "type": "VEC3"
    },
    {
      "bufferView": 1,
      "byteOffset": 1131024,
      "componentType": 5126,
      "count": 9683,
      "max": [
        0.7512000203132629,
        0.7196000218391418
      ],
      "min": [
        0.004999999888241291,
        0.004999999888241291
      ],
      "type": "VEC2"
    },
    {
      "bufferView": 0,
      "byteOffset": 1930944,
      "componentType": 5125,
      "count": 37842,
      "type": "SCALAR"
    },
    {
      "bufferView": 2,
      "byteOffset": 3625464,
      "componentType": 5126,
      "count": 9933,
      "max": [
        12.916199684143066,
        8.934800148010254,
        21.13909912109375
      ],
      "min": [
        -9.009400367736816,
        -9.089200019836426,
        1.5988999605178833
      ],
      "type": "VEC3"
    },
    {
      "bufferView": 2,
      "byteOffset": 3744660,
      "componentType": 5126,
      "count": 9933,
      "max": [
        1.0,
        0.9999995231628418,
        0.9999006986618042
      ],
      "min": [
        -1.0,
        -0.9999995231628418,
        -0.9999350309371948
      ],
      "type": "VEC3"
    },
    {
      "bufferView": 1,
      "byteOffset": 1208488,
      "componentType": 5126,
      "count": 9933,
      "max": [
        0.6535000205039978,
        0.6753000020980835
      ],
      "min": [
        0.004999999888241291,
        0.004999999888241291
      ],
      "type": "VEC2"
    },
    {
      "bufferView": 0,
      "byteOffset": 2082312,
      "componentType": 5125,
      "count": 37830,
      "type": "SCALAR"
    },
    {
      "bufferView": 2,
      "byteOffset": 3863856,
      "componentType": 5126,
      "count": 9771,
      "max": [
        8.576899528503418,
        8.637999534606934,
        18.652099609375
      ],
      "min": [
        -8.115900039672852,
        -8.637999534606934,
        1.3733999729156494
      ],
      "type": "VEC3"
    },
    {
      "bufferView": 2,
      "byteOffset": 3981108,
      "componentType": 5126,
      "count": 9771,
      "max": [
        0.9861604571342468,
        0.999891996383667,
        0.9839725494384766
      ],
      "min": [
        -0.9773401618003845,
        -0.999891996383667,
        -0.9992572665214539
      ],
      "type": "VEC3"
    },
    {
      "bufferView": 1,
      "byteOffset": 1287952,
      "componentType": 5126,
      "count": 9771,
      "max": [
        0.695900022983551,
        0.704800009727478
      ],
      "min": [
        0.004999999888241291,
        0.004999999888241291
      ],
      "type": "VEC2"
    },
    {
      "bufferView": 0,
      "byteOffset": 2233632,
      "componentType": 5125,
      "count": 28308,
      "type": "SCALAR"
    },
    {
      "bufferView": 2,
      "byteOffset": 4098360,
      "componentType": 5126,
      "count": 6378,
      "max": [
        8.568099975585938,
        8.637999534606934,
        19.02630043029785
      ],
      "min": [
        -8.997699737548828,
        -8.637999534606934,
        1.7253999710083008
      ],
      "type": "VEC3"
    },
    {
      "bufferView": 2,
      "byteOffset": 4174896,
      "componentType": 5126,
      "count": 6378,
      "max": [
        0.9917232990264893,
        0.9998367428779602,
        0.9992729425430298
      ],
      "min": [
        -0.9892433881759644,
        -0.9994393587112427,
        -0.9830368757247925
      ],
      "type": "VEC3"
    },
    {
      "bufferView": 1,
      "byteOffset": 1366120,
      "componentType": 5126,
      "count": 6378,
      "max": [
        0.6947000026702881,
        0.6945000290870667
      ],
      "min": [
        0.004999999888241291,
        0.012900000438094139
      ],
      "type": "VEC2"
    },
    {
      "bufferView": 0,
      "byteOffset": 2346864,
      "componentType": 5125,
      "count": 18372,
      "type": "SCALAR"
    }
  ],
  "asset": {
    "extras": {
      "author": "Francesco Coldesina (https://sketchfab.com/topfrank2013)",
      "license": "CC-BY-4.0 (http://creativecommons.org/licenses/by/4.0/)",
      "source": "https://sketchfab.com/3d-models/wheel-chair-379b5009f94b4996b5d14d5e287283c7",
      "title": "Wheel Chair"
    },
    "generator": "Sketchfab-12.65.0",
    "version": "2.0"
  },
  "bufferViews": [
    {
      "buffer": 0,
      "byteLength": 2420352,
      "name": "floatBufferViews",
      "target": 34963
    },
    {
      "buffer": 0,
      "byteLength": 1417144,
      "byteOffset": 2420352,
      "byteStride": 8,
      "name": "floatBufferViews",
      "target": 34962
    },
    {
      "buffer": 0,
      "byteLength": 4251432,
      "byteOffset": 3837496,
      "byteStride": 12,
      "name": "floatBufferViews",
      "target": 34962
    }
  ],
  "buffers": [
    {
      "byteLength": 8088928,
      "uri": "scene.bin"
    }
  ],
  "extensionsRequired": [
    "KHR_materials_pbrSpecularGlossiness"
  ],
  "extensionsUsed": [
    "KHR_materials_pbrSpecularGlossiness"
  ],
  "images": [
    {
      "uri": "textures/Wheel_Chair_diffuse.jpeg"
    },
    {
      "uri": "textures/Wheel_Chair_specularGlossiness.png"
    },
    {
      "uri": "textures/Wheel_Chair_occlusion.png"
    }
  ],
  "materials": [
    {
      "doubleSided": true,
      "extensions": {
        "KHR_materials_pbrSpecularGlossiness": {
          "diffuseFactor": [
            1.0,
            1.0,
            1.0,
            1.0
          ],
          "diffuseTexture": {
            "index": 0
          },
          "glossinessFactor": 1.0,
          "specularFactor": [
            1.0,
            1.0,
            1.0
          ],
          "specularGlossinessTexture": {
            "index": 1
          }
        }
      },
      "name": "Wheel_Chair",
      "occlusionTexture": {
        "index": 2
      }
    }
  ],
  "meshes": [
    {
      "name": "Object_0",
      "primitives": [
        {
          "attributes": {
            "NORMAL": 1,
            "POSITION": 0,
            "TEXCOORD_0": 2
          },
          "indices": 3,
          "material": 0,
          "mode": 4
        }
      ]
    },
    {
      "name": "Object_1",
      "primitives": [
        {
          "attributes": {
            "NORMAL": 5,
            "POSITION": 4,
            "TEXCOORD_0": 6
          },
          "indices": 7,
          "material": 0,
          "mode": 4
        }
      ]
    },
    {
      "name": "Object_2",
      "primitives": [
        {
          "attributes": {
            "NORMAL": 9,
            "POSITION": 8,
            "TEXCOORD_0": 10
          },
          "indices": 11,
          "material": 0,
          "mode": 4
        }
      ]
    },
    {
      "name": "Object_3",
      "primitives": [
        {
          "attributes": {
            "NORMAL": 13,
            "POSITION": 12,
            "TEXCOORD_0": 14
          },
          "indices": 15,
          "material": 0,
          "mode": 4
        }
      ]
    },
    {
      "name": "Object_4",
      "primitives": [
        {
          "attributes": {
            "NORMAL": 17,
            "POSITION": 16,
            "TEXCOORD_0": 18
          },
          "indices": 19,
          "material": 0,
          "mode": 4
        }
      ]
    },
    {
      "name": "Object_5",
      "primitives": [
        {
          "attributes": {
            "NORMAL": 21,
            "POSITION": 20,
            "TEXCOORD_0": 22
          },
          "indices": 23,
          "material": 0,
          "mode": 4
        }
      ]
    },
    {
      "name": "Object_6",
      "primitives": [
        {
          "attributes": {
            "NORMAL": 25,
            "POSITION": 24,
            "TEXCOORD_0": 26
          },
          "indices": 27,
          "material": 0,
          "mode": 4
        }
      ]
    },
    {
      "name": "Object_7",
      "primitives": [
        {
          "attributes": {
            "NORMAL": 29,
            "POSITION": 28,
            "TEXCOORD_0": 30
          },
          "indices": 31,
          "material": 0,
          "mode": 4
        }
      ]
    },
    {
      "name": "Object_8",
      "primitives": [
        {
          "attributes": {
            "NORMAL": 33,
            "POSITION": 32,
            "TEXCOORD_0": 34
          },
          "indices": 35,
          "material": 0,
          "mode": 4
        }
      ]
    },
    {
      "name": "Object_9",
      "primitives": [
        {
          "attributes": {
            "NORMAL": 37,
            "POSITION": 36,
            "TEXCOORD_0": 38
          },
          "indices": 39,
          "material": 0,
          "mode": 4
        }
      ]
    },
    {
      "name": "Object_10",
      "primitives": [
        {
          "attributes": {
            "NORMAL": 41,
            "POSITION": 40,
            "TEXCOORD_0": 42
          },
          "indices": 43,
          "material": 0,
          "mode": 4
        }
      ]
    },
    {
      "name": "Object_11",
      "primitives": [
        {
          "attributes": {
            "NORMAL": 45,
            "POSITION": 44,
            "TEXCOORD_0": 46
          },
          "indices": 47,
          "material": 0,
          "mode": 4
        }
      ]
    },
    {
      "name": "Object_12",
      "primitives": [
        {
          "attributes": {
            "NORMAL": 49,
            "POSITION": 48,
            "TEXCOORD_0": 50
          },
          "indices": 51,
          "material": 0,
          "mode": 4
        }
      ]
    },
    {
      "name": "Object_13",
      "primitives": [
        {
          "attributes": {
            "NORMAL": 53,
            "POSITION": 52,
            "TEXCOORD_0": 54
          },
          "indices": 55,
          "material": 0,
          "mode": 4
        }
      ]
    }
  ],
  "nodes": [
    {
      "children": [
        1
      ],
      "matrix": [
        1.0,
        0.0,
        0.0,
        0.0,
        0.0,
        2.220446049250313e-16,
        -1.0,
        0.0,
        0.0,
        1.0,
        2.220446049250313e-16,
        0.0,
        0.0,
        0.0,
        0.0,
        1.0
      ],
      "name": "Sketchfab_model"
    },
    {
      "children": [
        2,
        3,
        4,
        5,
        6,
        7,
        8,
        9,
        10,
        11,
        12,
        13,
        14,
        15
      ],
      "name": "Sedia Rotelle A1.obj.cleaner.materialmerger.gles"
    },
    {
      "mesh": 0,
      "name": "Object_2"
    },
    {
      "mesh": 1,
      "name": "Object_3"
    },
    {
      "mesh": 2,
      "name": "Object_4"
    },
    {
      "mesh": 3,
      "name": "Object_5"
    },
    {
      "mesh": 4,
      "name": "Object_6"
    },
    {
      "mesh": 5,
      "name": "Object_7"
    },
    {
      "mesh": 6,
      "name": "Object_8"
    },
    {
      "mesh": 7,
      "name": "Object_9"
    },
    {
      "mesh": 8,
      "name": "Object_10"
    },
    {
      "mesh": 9,
      "name": "Object_11"
    },
    {
      "mesh": 10,
      "name": "Object_12"
    },
    {
      "mesh": 11,
      "name": "Object_13"
    },
    {
      "mesh": 12,
      "name": "Object_14"
    },
    {
      "mesh": 13,
      "name": "Object_15"
    }
  ],
  "samplers": [
    {
      "magFilter": 9729,
      "minFilter": 9987,
      "wrapS": 10497,
      "wrapT": 10497
    }
  ],
  "scene": 0,
  "scenes": [
    {
      "name": "Sketchfab_Scene",
      "nodes": [
        0
      ]
    }
  ],
  "textures": [
    {
      "sampler": 0,
      "source": 0
    },
    {
      "sampler": 0,
      "source": 1
    },
    {
      "sampler": 0,
      "source": 2
    }
  ]
}
